<?xml version="1.0" encoding="UTF-8"?>
<svg width="180" height="180" viewBox="0 0 180 180" fill="none" xmlns="http://www.w3.org/2000/svg">
  <rect width="180" height="180" rx="45" fill="#111827"/>
  <path d="M54 90C54 83.37 59.37 78 66 78C72.63 78 78 83.37 78 90C78 96.63 72.63 102 66 102C59.37 102 54 96.63 54 90Z" fill="#22C55E"/>
  <path d="M54 54C54 47.37 59.37 42 66 42C72.63 42 78 47.37 78 54C78 60.63 72.63 66 66 66C59.37 66 54 60.63 54 54Z" fill="#3B82F6"/>
  <path d="M54 126C54 119.37 59.37 114 66 114C72.63 114 78 119.37 78 126C78 132.63 72.63 138 66 138C59.37 138 54 132.63 54 126Z" fill="#A3A3A3"/>
  <rect x="87" y="48" width="48" height="12" rx="6" fill="#E5E7EB"/>
  <rect x="87" y="84" width="48" height="12" rx="6" fill="#E5E7EB"/>
  <rect x="87" y="120" width="48" height="12" rx="6" fill="#E5E7EB"/>
</svg>
