<!-- This is a placeholder. In a real scenario, you would generate proper
 ICO file format with multiple resolutions (16x16, 32x32, 48x48) -->
<svg width="32" height="32" viewBox="0 0 32 32" fill="none" xmlns="http://www.w3.org/2000/svg">
  <rect width="32" height="32" rx="8" fill="#111827"/>
  <path d="M10 16C10 14.9 10.9 14 12 14C13.1 14 14 14.9 14 16C14 17.1 13.1 18 12 18C10.9 18 10 17.1 10 16Z" fill="#22C55E"/>
  <path d="M10 10C10 8.9 10.9 8 12 8C13.1 8 14 8.9 14 10C14 11.1 13.1 12 12 12C10.9 12 10 11.1 10 10Z" fill="#3B82F6"/>
  <path d="M10 22C10 20.9 10.9 20 12 20C13.1 20 14 20.9 14 22C14 23.1 13.1 24 12 24C10.9 24 10 23.1 10 22Z" fill="#A3A3A3"/>
  <rect x="16" y="9" width="9" height="2" rx="1" fill="#E5E7EB"/>
  <rect x="16" y="15" width="9" height="2" rx="1" fill="#E5E7EB"/>
  <rect x="16" y="21" width="9" height="2" rx="1" fill="#E5E7EB"/>
</svg>
