<?xml version="1.0" encoding="UTF-8"?>
<svg width="512" height="512" viewBox="0 0 512 512" fill="none" xmlns="http://www.w3.org/2000/svg">
  <rect width="512" height="512" rx="128" fill="#111827"/>
  <path d="M160 256C160 238.33 174.33 224 192 224C209.67 224 224 238.33 224 256C224 273.67 209.67 288 192 288C174.33 288 160 273.67 160 256Z" fill="#22C55E"/>
  <path d="M160 160C160 142.33 174.33 128 192 128C209.67 128 224 142.33 224 160C224 177.67 209.67 192 192 192C174.33 192 160 177.67 160 160Z" fill="#3B82F6"/>
  <path d="M160 352C160 334.33 174.33 320 192 320C209.67 320 224 334.33 224 352C224 369.67 209.67 384 192 384C174.33 384 160 369.67 160 352Z" fill="#A3A3A3"/>
  <rect x="248" y="144" width="144" height="32" rx="16" fill="#E5E7EB"/>
  <rect x="248" y="240" width="144" height="32" rx="16" fill="#E5E7EB"/>
  <rect x="248" y="336" width="144" height="32" rx="16" fill="#E5E7EB"/>
</svg>
